<svg xmlns="http://www.w3.org/2000/svg" viewBox="-160 -10 460 230" width="100%" height="100%">
  <!-- jbotci app logo, matching the v0 dark topbar asset. -->
  <g fill="none" stroke="white" stroke-width="10" stroke-linecap="round" stroke-linejoin="round">
    <path d="M -110, 40 V 170 A 30,30 0 0,1 -140, 200" />
    <path d="M -90, 20 V 160" />
    <circle cx="-30" cy="100" r="60" />
    <path d="M 252.4, 40 V 160" />
  </g>
  <g fill="white">
    <circle cx="-110" cy="20" r="5" />
    <circle cx="252.4" cy="20" r="5" />
  </g>
  <g fill="none" stroke-width="10" stroke-linecap="round" stroke-linejoin="round">
    <circle cx="110" cy="100" r="60" stroke="#4fb4ff" />
    <path stroke="#4fb4ff" d="M 232.426,57.574 A 60,60 0 1,0 232.426,142.426" />
    <path stroke="#ff6655" d="M 30,100 H 270 M 150,20 V 170 A 30,30 0 0,0 180,200" />
  </g>
  <path fill="#ff6655" d="m40,85-6,15 6,15-24-15zm220,0 6,15-6,15 24-15zM135,30l15-6 15,6-15-24z"/>
</svg>
